<svg id="_PLACEHOLDER_" data-name="[PLACEHOLDER]" xmlns="http://www.w3.org/2000/svg" width="5555" height="2965" viewBox="0 0 5555 2965">
  <defs>
    <style>
      .cls-1 {
        fill: #e8826e;
      }

      .cls-1, .cls-2, .cls-3, .cls-4 {
        fill-rule: evenodd;
      }

      .cls-2 {
        fill: #f3af7d;
      }

      .cls-3 {
        fill: #f8d29d;
      }

      .cls-4 {
        fill: #fff;
      }
    </style>
  </defs>
  <path class="cls-1" d="M755.907,1502.78H4800.94V2734.52H755.907V1502.78Z"/>
  <path class="cls-2" d="M2033.58,271.053H5407.51V1502.79H2033.58V271.053Z"/>
  <path class="cls-3" d="M201.883,271.918H2054.77V1502.73H201.883V271.918Z"/>
  <path id="_PLACEHOLDER_TEXT_" data-name="[PLACEHOLDER TEXT]" class="cls-4" d="M819.767,752.659H755.742l-60.5,260.671L645.59,752.659H570.222l81.417,367.051h76.124L787.5,874.17l59.74,245.54h76.123l81.415-367.051H929.415l-49.4,261.171ZM1369.67,901.4H1224.48V813.919h169.89v-61.26H1148.86V1119.71h246.02v-60.75h-170.4V960.639h145.19V901.4Zm315.49,218.314q62.5-.495,96.29-27.73,33.765-27.225,33.77-80.17,0-31-16.26-52.432-16.245-21.424-44.48-28.487,24.69-9.577,38.56-30.125t13.86-47.52q0-49.407-34.53-75t-101.33-25.588H1542.49V1119.71h142.67Zm2.27-159.828q52.17,0.758,52.17,51.178,0,22.44-14.99,35.17t-41.72,12.73h-64.78V959.882h69.32Zm-69.32-145.963h52.93q31.26,0,45.75,10.966t14.5,35.924q0,44.621-57.22,45.629h-55.96V813.919Zm801.36,183.526q-2.52,33.532-19.78,49.535-17.28,16.02-52.31,16.01-38.82,0-56.84-27.48-18.015-27.465-18.02-86.972V920.807q0.495-56.969,19.28-84.074t56.59-27.1q34.785,0,51.8,16.008t19.79,51.554h75.62q-6.06-61.508-44.87-95.545t-102.34-34.033q-45.885,0-80.53,21.554-34.665,21.555-53.32,61.89t-18.65,93.276v22.436q0,82.945,40.46,130.457t111.03,47.52q64.53,0,103.98-34.03t43.73-93.275h-75.62Zm530-69.327q0-53.945-19.54-95.166t-55.2-63.276q-35.67-22.058-81.54-22.059-45.885,0-81.55,22.059t-55.2,63.276q-19.53,41.217-19.53,95.418v18.151q0.24,52.941,19.91,93.659t55.45,62.64q35.79,21.93,81.42,21.93,46.125,0,81.79-22.18t54.83-63.03q19.155-40.83,19.16-95.035V928.118Zm-76.63,17.647q-0.255,57.23-20.67,87.095t-58.48,29.88q-38.82,0-59.49-31.01t-20.67-87.225v-17.9q0.255-57.225,20.92-86.848t58.74-29.621q38.31,0,58.98,30t20.67,87.729v17.9Zm533.27-193.106h-75.37V994.672L3183.28,752.659h-75.62V1119.71h75.62V878.2l147.21,241.507h75.62V752.659Zm445.55,0H3552.71v61.26h110.91V1119.71h75.62V813.919h112.42v-61.26ZM4218.82,901.4H4073.63V813.919h169.89v-61.26H3998.01V1119.71h246.01v-60.75H4073.63V960.639h145.19V901.4Zm471.26-148.737h-75.37V994.672L4467.25,752.659h-75.62V1119.71h75.62V878.2l147.21,241.507h75.62V752.659Zm445.55,0H4836.68v61.26h110.91V1119.71h75.62V813.919h112.42v-61.26ZM1289.57,1969.64v367.05h75.62V2236.35l-7.57-172.93,98.81,273.27h51.93l99.06-273.53-7.56,173.19v100.34h75.87V1969.64h-99.31l-93.77,266.21-94.27-266.21h-98.81Zm788.1,367.05h80.41l-137.37-367.05h-70.08l-136.62,367.05h80.41l25.21-75.63h132.58Zm-92-274.28,46.13,137.39h-91.75Zm608.38-92.77h-75.36v242.01l-147.46-242.01h-75.62v367.05h75.62V2095.18l147.2,241.51h75.62V1969.64ZM2996,2336.69h80.41l-137.38-367.05h-70.07l-136.62,367.05h80.41l25.2-75.63h132.59Zm-92.01-274.28,46.13,137.39h-91.75Zm600.32,81.43H3359.88v55.71h68.81v63.27q-18.15,18.165-60.74,18.16-42.36,0-64.28-29.5t-21.93-87.22v-23.45q0.24-57.225,20.42-86.22,20.16-28.98,58.73-28.99,30.24,0,47.51,14.62t22.31,46.14h73.6q-6.795-59.49-43.6-90.63t-102.09-31.14q-46.89,0-81.8,21.31t-53.43,61.51q-18.54,40.215-18.53,95.16v24.96q0.495,53.445,20.04,93.03,19.53,39.57,55.45,60.37t83.56,20.8q45.375,0,82.68-13.49,37.3-13.47,57.72-37.94V2143.84Zm385.31-25.47H3744.43V2030.9h169.89v-61.26H3668.81v367.05h246.02v-60.76h-170.4v-98.31h145.19v-59.25Zm377.49,218.32h81.17v-3.53l-79.4-150q33.015-14.865,49.28-39.95,16.245-25.1,16.25-62.65,0-52.935-35.29-81.93t-100.32-28.99H4062.44v367.05h75.61V2202.32h60.25ZM4138.05,2030.9h60.75q30.495,0,45.25,14.87t14.74,40.84q0,25.47-15.62,39.96-15.645,14.49-44.12,14.49h-61V2030.9Z"/>
</svg>
