<svg id="_PLACEHOLDER_" data-name="[PLACEHOLDER]" xmlns="http://www.w3.org/2000/svg" width="1500" height="801" viewBox="0 0 1500 801">
  <defs>
    <style>
      .cls-1 {
        fill: #e8826e;
      }

      .cls-1, .cls-2, .cls-3, .cls-4 {
        fill-rule: evenodd;
      }

      .cls-2 {
        fill: #f3af7d;
      }

      .cls-3 {
        fill: #f8d29d;
      }

      .cls-4 {
        fill: #fff;
      }
    </style>
  </defs>
  <path class="cls-1" d="M204.115,405.979H1296.38V738.735H204.115V405.979Z"/>
  <path class="cls-2" d="M549.12,73.226h911.05V405.982H549.12V73.226Z"/>
  <path class="cls-3" d="M54.514,73.459H554.843V405.966H54.514V73.459Z"/>
  <path id="_PLACEHOLDER_TEXT_" data-name="[PLACEHOLDER TEXT]" class="cls-4" d="M221.359,203.332H204.071l-16.336,70.42-13.408-70.42H153.975l21.985,99.16h20.556l16.131-66.334,16.131,66.334h20.556l21.984-99.16H250.967l-13.34,70.556Zm148.49,40.182H330.643V219.882h45.876v-16.55h-66.3v99.16h66.431V286.079H330.643V259.518h39.206v-16Zm85.189,58.978q16.88-.135,26-7.491t9.12-21.658a22.758,22.758,0,0,0-4.39-14.165,20.929,20.929,0,0,0-12.013-7.7,21.618,21.618,0,0,0,10.413-8.139,22.411,22.411,0,0,0,3.744-12.837q0-13.347-9.325-20.261t-27.362-6.913H416.513v99.16h38.525Zm0.613-43.178q14.088,0.2,14.089,13.825a11.8,11.8,0,0,1-4.05,9.5q-4.05,3.44-11.265,3.439H436.933V259.314h18.718Zm-18.718-39.432h14.293q8.439,0,12.354,2.962t3.914,9.705q0,12.054-15.451,12.327h-15.11V219.882Zm216.39,49.579q-0.681,9.058-5.343,13.383t-14.123,4.325q-10.482,0-15.349-7.424t-4.866-23.5v-7.491q0.135-15.391,5.207-22.713t15.28-7.321q9.393,0,13.987,4.324t5.343,13.928h20.42q-1.634-16.617-12.116-25.812t-27.634-9.194a40.307,40.307,0,0,0-21.747,5.823,37.76,37.76,0,0,0-14.395,16.72q-5.038,10.9-5.037,25.2v6.062q0,22.407,10.924,35.243t29.983,12.838q17.423,0,28.076-9.194t11.81-25.2h-20.42Zm143.112-18.728q0-14.574-5.274-25.71a39.308,39.308,0,0,0-14.907-17.094,43.659,43.659,0,0,0-44.037,0,39.287,39.287,0,0,0-14.906,17.094q-5.276,11.136-5.275,25.778v4.9q0.066,14.3,5.377,25.3a39.346,39.346,0,0,0,14.974,16.924,43.724,43.724,0,0,0,44.072-.068,38.979,38.979,0,0,0,14.8-17.026q5.171-11.032,5.172-25.675v-4.427ZM775.744,255.5q-0.069,15.461-5.581,23.53t-15.791,8.07q-10.483,0-16.064-8.376t-5.581-23.564v-4.836q0.068-15.459,5.65-23.462t15.859-8q10.344,0,15.927,8.1t5.581,23.7V255.5Zm144-52.168H899.39v65.38l-39.818-65.38H839.153v99.16h20.419V237.248l39.75,65.244h20.419v-99.16Zm120.309,0H959.327v16.55h29.949v82.61H1009.7v-82.61h30.35v-16.55Zm99.14,40.182h-39.2V219.882h45.87v-16.55h-66.29v99.16H1146V286.079h-46.01V259.518h39.2v-16Zm127.26-40.182H1246.1v65.38l-39.82-65.38h-20.42v99.16h20.42V237.248l39.75,65.244h20.42v-99.16Zm120.31,0h-80.73v16.55h29.95v82.61h20.42v-82.61h30.36v-16.55ZM348.218,532.1v99.16h20.419V604.155L366.6,557.436l26.681,73.825H407.3l26.749-73.893-2.042,46.787v27.106h20.487V532.1H425.675l-25.32,71.918L374.9,532.1H348.218Zm212.81,99.16H582.74l-37.1-99.16H526.723l-36.891,99.16h21.713l6.806-20.432h35.8Zm-24.844-74.1L548.64,594.28H523.865ZM700.465,532.1H680.113v65.38L640.3,532.1h-20.42v99.16H640.3V566.017l39.749,65.244h20.42V532.1ZM809,631.261h21.713L793.618,532.1H774.7l-36.891,99.16h21.712l6.807-20.432h35.8Zm-24.843-74.1,12.455,37.117H771.837Zm162.1,22h-39v15.051H925.84v17.094q-4.9,4.9-16.4,4.9-11.435,0-17.356-7.969t-5.922-23.564v-6.333q0.067-15.459,5.513-23.292t15.859-7.832q8.168,0,12.83,3.95t6.024,12.463h19.875q-1.838-16.072-11.775-24.483t-27.566-8.411q-12.66,0-22.087,5.755a37.025,37.025,0,0,0-14.43,16.617q-5,10.865-5,25.709v6.743q0.136,14.439,5.412,25.13A37.461,37.461,0,0,0,885.784,627q9.7,5.619,22.563,5.619a65.24,65.24,0,0,0,22.325-3.644q10.072-3.642,15.587-10.249V579.161Zm104.041-6.879h-39.2V548.65h45.87V532.1H990.678v99.16h66.432V614.848H1011.1V588.287h39.2v-16Zm101.94,58.979h21.91v-0.954l-21.44-40.522q8.925-4.017,13.31-10.794t4.39-16.924q0-14.3-9.53-22.134t-27.09-7.832h-36.82v99.16h20.42v-36.3h16.26Zm-34.85-82.611h16.4q8.235,0,12.22,4.018t3.98,11.033q0,6.88-4.22,10.795t-11.91,3.916h-16.47V548.65Z"/>
</svg>
